<svg width="50" height="50" viewBox="0 0 50 50" fill="none" xmlns="http://www.w3.org/2000/svg">
<g id="hand-holding-usd" clip-path="url(#clip0_96_25)">
<path id="Vector" d="M23.5295 15.3039L28.2404 16.5452C28.4004 16.5826 28.5436 16.6718 28.6477 16.799C28.7518 16.9261 28.8109 17.0841 28.816 17.2483C28.816 17.6476 28.4609 17.9775 28.0243 17.9775H24.934C24.601 17.9765 24.2713 17.9117 23.9627 17.7865C23.5078 17.5955 22.9835 17.6389 22.6345 17.9601L20.9852 19.4792C20.909 19.546 20.8431 19.6238 20.7899 19.7101C20.7218 19.8218 20.6765 19.9459 20.6566 20.0752C20.6367 20.2045 20.6425 20.3364 20.6738 20.4634C20.7052 20.5904 20.7613 20.71 20.839 20.8152C20.9167 20.9204 21.0145 21.0092 21.1267 21.0764C22.0401 21.6246 23.0628 21.9654 24.1224 22.0747V23.6112C24.1224 24.3751 24.8021 25.0001 25.6302 25.0001H27.138C27.967 25.0001 28.6467 24.3751 28.6467 23.6112V22.0834C31.5052 21.7709 33.6675 19.3924 33.2908 16.6146C33.0174 14.6181 31.3411 13.0296 29.2491 12.474L24.5382 11.2327C24.3782 11.1953 24.235 11.1061 24.131 10.9789C24.0269 10.8518 23.9677 10.6938 23.9627 10.5296C23.9627 10.1303 24.3177 9.8004 24.7543 9.8004H27.8446C28.1788 9.80092 28.5098 9.86576 28.8194 9.99137C29.2734 10.1823 29.7986 10.1389 30.1476 9.81776L31.7969 8.29867C31.8706 8.23331 31.9341 8.15723 31.9852 8.07297C32.0539 7.96132 32.0998 7.83716 32.1202 7.70767C32.1406 7.57819 32.1352 7.44594 32.1042 7.31858C32.0732 7.19121 32.0172 7.07125 31.9396 6.96562C31.862 6.85999 31.7642 6.7708 31.6519 6.70318C30.7382 6.15503 29.7153 5.81425 28.6554 5.70492V4.16672C28.6554 3.40283 27.9766 2.77783 27.1476 2.77783H25.6398C24.8108 2.77783 24.1319 3.40283 24.1319 4.16672V5.6945C21.2769 6.007 19.1102 8.38547 19.487 11.1632C19.7595 13.1598 21.441 14.7483 23.5295 15.3039ZM49.0686 31.2587C48.0443 30.3299 46.447 30.3907 45.3707 31.2587L37.3498 37.6737C36.3652 38.4635 35.1399 38.8924 33.8776 38.8889H23.6111C23.2428 38.8889 22.8895 38.7426 22.629 38.4821C22.3685 38.2217 22.2222 37.8684 22.2222 37.5001C22.2222 37.1317 22.3685 36.7784 22.629 36.518C22.8895 36.2575 23.2428 36.1112 23.6111 36.1112H30.4071C31.7873 36.1112 33.0729 35.165 33.2934 33.8021C33.3206 33.6456 33.3339 33.487 33.3333 33.3282C33.332 32.5924 33.0387 31.8872 32.5179 31.3674C31.9971 30.8475 31.2914 30.5556 30.5556 30.5556H16.6667C14.3243 30.5562 12.0534 31.3619 10.2344 32.8377L6.19792 36.1112H1.38889C1.02053 36.1112 0.667263 36.2575 0.406796 36.518C0.146329 36.7784 0 37.1317 0 37.5001L0 45.8334C0 46.2017 0.146329 46.555 0.406796 46.8155C0.667263 47.0759 1.02053 47.2223 1.38889 47.2223H32.3585C33.6203 47.2233 34.8449 46.7947 35.8307 46.007L48.9583 35.5035C49.2741 35.2509 49.531 34.9325 49.7109 34.5703C49.8908 34.2082 49.9895 33.8112 50.0001 33.4069C50.0107 33.0027 49.9329 32.601 49.7722 32.23C49.6114 31.859 49.3716 31.5275 49.0694 31.2587H49.0686Z" fill="black"/>
</g>
<defs>
<clipPath id="clip0_96_25">
<rect width="50" height="50" fill="white"/>
</clipPath>
</defs>
</svg>
