<svg width="50" height="50" viewBox="0 0 50 50" fill="none" xmlns="http://www.w3.org/2000/svg">
<g id="hands">
<path id="Vector" d="M16 23C15.1719 21.8984 13.6016 21.6719 12.5 22.5C11.3984 23.3281 11.1719 24.8984 12 26L14.9766 29.9688C15.3516 30.4688 15.2969 31.1641 14.8594 31.6016L13.8594 32.6016C13.3359 33.125 12.4844 33.0859 12.0156 32.5156L5 24.0938V12.5C5 11.1172 3.88281 10 2.5 10C1.11719 10 0 11.1172 0 12.5V29.5625C0 30.4141 0.289062 31.2422 0.820312 31.9062L8.95312 42.3984C9.34375 42.9062 9.60938 43.4844 9.76562 44.0938C9.90625 44.6328 10.3984 45 10.9609 45H21.25C21.9375 45 22.5 44.4375 22.5 43.75V35C22.5 32.8359 21.7969 30.7344 20.5 29L16 23ZM47.5 10C46.1172 10 45 11.1172 45 12.5V24.0938L37.9844 32.5156C37.5156 33.0781 36.6562 33.1172 36.1406 32.6016L35.1406 31.6016C34.7031 31.1641 34.6484 30.4688 35.0234 29.9688L38 26C38.8281 24.8984 38.6016 23.3281 37.5 22.5C36.3984 21.6719 34.8281 21.8984 34 23L29.5 29C28.2031 30.7344 27.5 32.8359 27.5 35V43.75C27.5 44.4375 28.0625 45 28.75 45H39.0391C39.5938 45 40.0938 44.6328 40.2344 44.0938C40.3906 43.4844 40.6562 42.9062 41.0469 42.3984L49.1797 31.9062C49.7109 31.2422 50 30.4141 50 29.5625V12.5C50 11.1172 48.8828 10 47.5 10Z" fill="black"/>
</g>
</svg>
