<svg width="50" height="50" viewBox="0 0 50 50" fill="none" xmlns="http://www.w3.org/2000/svg">
<g id="hands-helping" clip-path="url(#clip0_96_27)">
<path id="Vector" d="M38.125 19.9998H26.25V24.3748C26.25 27.4763 23.7266 29.9998 20.625 29.9998C17.5234 29.9998 15 27.4763 15 24.3748V14.8748L9.9297 17.9216C8.42189 18.8201 7.50001 20.4529 7.50001 22.2029V25.8982L1.25001 29.5076C0.0546993 30.1951 -0.359363 31.7263 0.335949 32.9216L6.58595 43.7498C7.27345 44.9451 8.8047 45.3513 10 44.6638L18.0781 39.9998H28.75C31.5078 39.9998 33.75 37.7576 33.75 34.9998H35C36.3828 34.9998 37.5 33.8826 37.5 32.4998V27.4998H38.125C39.1641 27.4998 40 26.6638 40 25.6248V21.8748C40 20.8357 39.1641 19.9998 38.125 19.9998ZM49.6641 17.0779L43.4141 6.24977C42.7266 5.05446 41.1953 4.64821 40 5.33571L31.9219 9.99977H23.9375C23 9.99977 22.0859 10.2654 21.2891 10.7576L18.6719 12.3904C17.9375 12.8435 17.5 13.6482 17.5 14.5076V24.3748C17.5 26.1013 18.8984 27.4998 20.625 27.4998C22.3516 27.4998 23.75 26.1013 23.75 24.3748V17.4998H38.125C40.5391 17.4998 42.5 19.4607 42.5 21.8748V24.1013L48.75 20.492C49.9453 19.7966 50.3516 18.2732 49.6641 17.0779Z" fill="#989898"/>
</g>
<defs>
<clipPath id="clip0_96_27">
<rect width="50" height="50" fill="white"/>
</clipPath>
</defs>
</svg>
