<svg width="25" height="25" viewBox="0 0 25 25" fill="none" xmlns="http://www.w3.org/2000/svg">
<g id="phone-volume" clip-path="url(#clip0_96_10)">
<path id="Vector" d="M7.87759 24.7542C1.53609 18.4127 1.54551 8.14033 7.87759 1.80825C8.15582 1.53002 8.58692 1.48442 8.91583 1.68998L12.0807 3.66816C12.2476 3.77245 12.3725 3.93208 12.4337 4.11913C12.4948 4.30619 12.4882 4.50878 12.4151 4.6915L10.8327 8.6476C10.7651 8.8166 10.6444 8.95903 10.4888 9.05344C10.3332 9.14785 10.1511 9.1891 9.96998 9.17099L7.24488 8.89853C6.217 11.7433 6.23843 14.8786 7.24488 17.6639L9.97003 17.3914C10.1511 17.3733 10.3332 17.4145 10.4888 17.509C10.6445 17.6034 10.7652 17.7458 10.8328 17.9148L12.4152 21.8709C12.4883 22.0537 12.4948 22.2562 12.4337 22.4433C12.3726 22.6304 12.2476 22.79 12.0808 22.8943L8.91588 24.8725C8.75493 24.973 8.56465 25.0161 8.37609 24.9946C8.18752 24.9731 8.0118 24.8884 7.87759 24.7542ZM15.1917 4.66176C15.7694 5.64062 15.7694 6.85942 15.1917 7.83828C14.9988 8.16508 14.5517 8.2269 14.2777 7.9643L13.986 7.68471C13.795 7.5017 13.752 7.21489 13.8756 6.9811C13.9946 6.75578 14.0568 6.50483 14.0568 6.25002C14.0568 5.99521 13.9946 5.74426 13.8756 5.51894C13.7519 5.28515 13.795 4.99833 13.986 4.81533L14.2777 4.53574C14.5517 4.27314 14.9988 4.33496 15.1917 4.66176ZM19.6735 0.209272C22.61 3.70556 22.6077 8.79726 19.6735 12.2907C19.455 12.5508 19.0617 12.5713 18.8165 12.3363L18.5334 12.0649C18.3107 11.8515 18.2903 11.502 18.4879 11.2652C20.9141 8.35805 20.9121 4.13954 18.4879 1.23481C18.2903 0.997993 18.3106 0.648481 18.5334 0.435053L18.8165 0.163715C19.0617 -0.0712945 19.455 -0.0508355 19.6735 0.209272ZM17.4288 2.40366C19.189 4.66547 19.1919 7.83085 17.4288 10.0963C17.2144 10.3718 16.8088 10.4016 16.5569 10.16L16.2728 9.88759C16.058 9.68159 16.0288 9.34584 16.2101 9.10971C17.5058 7.42202 17.5057 5.07788 16.2101 3.39028C16.0288 3.15414 16.058 2.81845 16.2728 2.6124L16.5569 2.33998C16.8088 2.09843 17.2144 2.12822 17.4288 2.40366Z" fill="black"/>
</g>
<defs>
<clipPath id="clip0_96_10">
<rect width="25" height="25" fill="white"/>
</clipPath>
</defs>
</svg>
