<svg width="50" height="50" viewBox="0 0 50 50" fill="none" xmlns="http://www.w3.org/2000/svg">
<g id="shipping-fast">
<path id="Vector" d="M48.75 32.5H47.5V24.0547C47.5 23.0625 47.1016 22.1094 46.3984 21.4062L38.5938 13.6016C37.8906 12.8984 36.9375 12.5 35.9453 12.5H32.5V8.75C32.5 6.67969 30.8203 5 28.75 5H8.75C6.67969 5 5 6.67969 5 8.75V12.5H0.625C0.28125 12.5 0 12.7812 0 13.125V14.375C0 14.7187 0.28125 15 0.625 15H21.875C22.2188 15 22.5 15.2812 22.5 15.625V16.875C22.5 17.2187 22.2188 17.5 21.875 17.5H3.125C2.78125 17.5 2.5 17.7812 2.5 18.125V19.375C2.5 19.7187 2.78125 20 3.125 20H19.375C19.7188 20 20 20.2812 20 20.625V21.875C20 22.2187 19.7188 22.5 19.375 22.5H0.625C0.28125 22.5 0 22.7812 0 23.125V24.375C0 24.7187 0.28125 25 0.625 25H16.875C17.2188 25 17.5 25.2812 17.5 25.625V26.875C17.5 27.2187 17.2188 27.5 16.875 27.5H5V37.5C5 41.6406 8.35938 45 12.5 45C16.6406 45 20 41.6406 20 37.5H30C30 41.6406 33.3594 45 37.5 45C41.6406 45 45 41.6406 45 37.5H48.75C49.4375 37.5 50 36.9375 50 36.25V33.75C50 33.0625 49.4375 32.5 48.75 32.5ZM12.5 41.25C10.4297 41.25 8.75 39.5703 8.75 37.5C8.75 35.4297 10.4297 33.75 12.5 33.75C14.5703 33.75 16.25 35.4297 16.25 37.5C16.25 39.5703 14.5703 41.25 12.5 41.25ZM37.5 41.25C35.4297 41.25 33.75 39.5703 33.75 37.5C33.75 35.4297 35.4297 33.75 37.5 33.75C39.5703 33.75 41.25 35.4297 41.25 37.5C41.25 39.5703 39.5703 41.25 37.5 41.25ZM43.75 25H32.5V16.25H35.9453L43.75 24.0547V25Z" fill="black"/>
</g>
</svg>
